<mxfile host="app.diagrams.net" agent="Mozilla/5.0 (Windows NT 10.0; Win64; x64) AppleWebKit/537.36 (KHTML, like Gecko) Chrome/136.0.0.0 Safari/537.36 Edg/136.0.0.0" version="27.0.3">
  <diagram name="Page-1" id="DlPoKQayUkNDCnxsOmdn">
    <mxGraphModel dx="3032" dy="1222" grid="1" gridSize="10" guides="1" tooltips="1" connect="1" arrows="1" fold="1" page="1" pageScale="1" pageWidth="850" pageHeight="1100" math="0" shadow="0">
      <root>
        <mxCell id="0" />
        <mxCell id="1" parent="0" />
        <mxCell id="UGFMIuL5P9NvXVXn8VAR-1" value="Giảng viên" style="swimlane;startSize=20;whiteSpace=wrap;html=1;fontStyle=1" parent="1" vertex="1">
          <mxGeometry x="-40" y="150" width="490" height="1340" as="geometry" />
        </mxCell>
        <mxCell id="UGFMIuL5P9NvXVXn8VAR-2" value="" style="ellipse;html=1;shape=startState;fillColor=#000000;strokeColor=#ff0000;fontStyle=1" parent="UGFMIuL5P9NvXVXn8VAR-1" vertex="1">
          <mxGeometry x="225" y="30" width="30" height="30" as="geometry" />
        </mxCell>
        <mxCell id="UGFMIuL5P9NvXVXn8VAR-3" value="" style="edgeStyle=orthogonalEdgeStyle;html=1;verticalAlign=bottom;endArrow=open;endSize=8;strokeColor=#ff0000;rounded=0;fontStyle=1;entryX=0.5;entryY=0;entryDx=0;entryDy=0;" parent="UGFMIuL5P9NvXVXn8VAR-1" source="UGFMIuL5P9NvXVXn8VAR-2" edge="1" target="UGFMIuL5P9NvXVXn8VAR-44">
          <mxGeometry relative="1" as="geometry">
            <mxPoint x="185" y="120" as="targetPoint" />
            <Array as="points" />
          </mxGeometry>
        </mxCell>
        <mxCell id="UGFMIuL5P9NvXVXn8VAR-77" style="edgeStyle=orthogonalEdgeStyle;rounded=0;orthogonalLoop=1;jettySize=auto;html=1;fontStyle=1;entryX=0.5;entryY=0;entryDx=0;entryDy=0;" parent="UGFMIuL5P9NvXVXn8VAR-1" source="UGFMIuL5P9NvXVXn8VAR-73" target="CGTucAXShJNqEY0WRfko-59" edge="1">
          <mxGeometry relative="1" as="geometry" />
        </mxCell>
        <mxCell id="UGFMIuL5P9NvXVXn8VAR-78" value="Trắc nghiệm" style="edgeLabel;html=1;align=center;verticalAlign=middle;resizable=0;points=[];fontStyle=1" parent="UGFMIuL5P9NvXVXn8VAR-77" vertex="1" connectable="0">
          <mxGeometry x="-0.3243" relative="1" as="geometry">
            <mxPoint as="offset" />
          </mxGeometry>
        </mxCell>
        <mxCell id="UGFMIuL5P9NvXVXn8VAR-80" style="edgeStyle=orthogonalEdgeStyle;rounded=0;orthogonalLoop=1;jettySize=auto;html=1;entryX=0.5;entryY=0;entryDx=0;entryDy=0;fontStyle=1" parent="UGFMIuL5P9NvXVXn8VAR-1" source="UGFMIuL5P9NvXVXn8VAR-73" target="UGFMIuL5P9NvXVXn8VAR-79" edge="1">
          <mxGeometry relative="1" as="geometry">
            <Array as="points">
              <mxPoint x="390" y="270" />
            </Array>
          </mxGeometry>
        </mxCell>
        <mxCell id="UGFMIuL5P9NvXVXn8VAR-81" value="Bài tập" style="edgeLabel;html=1;align=center;verticalAlign=middle;resizable=0;points=[];fontStyle=1" parent="UGFMIuL5P9NvXVXn8VAR-80" vertex="1" connectable="0">
          <mxGeometry x="-0.6528" y="-3" relative="1" as="geometry">
            <mxPoint x="33" y="-3" as="offset" />
          </mxGeometry>
        </mxCell>
        <mxCell id="UGFMIuL5P9NvXVXn8VAR-73" value="Chọn loại bài tập" style="rhombus;whiteSpace=wrap;html=1;fontStyle=1" parent="UGFMIuL5P9NvXVXn8VAR-1" vertex="1">
          <mxGeometry x="200" y="230" width="80" height="80" as="geometry" />
        </mxCell>
        <mxCell id="UGFMIuL5P9NvXVXn8VAR-83" style="edgeStyle=orthogonalEdgeStyle;rounded=0;orthogonalLoop=1;jettySize=auto;html=1;entryX=0.5;entryY=0;entryDx=0;entryDy=0;fontStyle=1" parent="UGFMIuL5P9NvXVXn8VAR-1" source="UGFMIuL5P9NvXVXn8VAR-76" target="UGFMIuL5P9NvXVXn8VAR-82" edge="1">
          <mxGeometry relative="1" as="geometry" />
        </mxCell>
        <mxCell id="UGFMIuL5P9NvXVXn8VAR-76" value="Tạo câu hỏi trắc nghiệm" style="rounded=1;whiteSpace=wrap;html=1;fontStyle=1" parent="UGFMIuL5P9NvXVXn8VAR-1" vertex="1">
          <mxGeometry x="20" y="480" width="120" height="60" as="geometry" />
        </mxCell>
        <mxCell id="UGFMIuL5P9NvXVXn8VAR-87" style="edgeStyle=orthogonalEdgeStyle;rounded=0;orthogonalLoop=1;jettySize=auto;html=1;fontStyle=1" parent="UGFMIuL5P9NvXVXn8VAR-1" source="UGFMIuL5P9NvXVXn8VAR-79" target="UGFMIuL5P9NvXVXn8VAR-86" edge="1">
          <mxGeometry relative="1" as="geometry" />
        </mxCell>
        <mxCell id="UGFMIuL5P9NvXVXn8VAR-79" value="Tạo bài tập tự luận" style="rounded=1;whiteSpace=wrap;html=1;fontStyle=1" parent="UGFMIuL5P9NvXVXn8VAR-1" vertex="1">
          <mxGeometry x="330" y="360" width="120" height="60" as="geometry" />
        </mxCell>
        <mxCell id="UGFMIuL5P9NvXVXn8VAR-82" value="Thêm các lựa chọn" style="rounded=1;whiteSpace=wrap;html=1;fontStyle=1" parent="UGFMIuL5P9NvXVXn8VAR-1" vertex="1">
          <mxGeometry x="20" y="600" width="120" height="60" as="geometry" />
        </mxCell>
        <mxCell id="UGFMIuL5P9NvXVXn8VAR-86" value="Nhập yêu cầu bài tập" style="rounded=1;whiteSpace=wrap;html=1;fontStyle=1" parent="UGFMIuL5P9NvXVXn8VAR-1" vertex="1">
          <mxGeometry x="330" y="480" width="120" height="60" as="geometry" />
        </mxCell>
        <mxCell id="UGFMIuL5P9NvXVXn8VAR-93" style="edgeStyle=orthogonalEdgeStyle;rounded=0;orthogonalLoop=1;jettySize=auto;html=1;fontStyle=1" parent="UGFMIuL5P9NvXVXn8VAR-1" source="UGFMIuL5P9NvXVXn8VAR-84" target="UGFMIuL5P9NvXVXn8VAR-92" edge="1">
          <mxGeometry relative="1" as="geometry" />
        </mxCell>
        <mxCell id="UGFMIuL5P9NvXVXn8VAR-84" value="Thêm đáp án đúng" style="rounded=1;whiteSpace=wrap;html=1;fontStyle=1" parent="UGFMIuL5P9NvXVXn8VAR-1" vertex="1">
          <mxGeometry x="20" y="730" width="120" height="60" as="geometry" />
        </mxCell>
        <mxCell id="UGFMIuL5P9NvXVXn8VAR-104" style="edgeStyle=orthogonalEdgeStyle;rounded=0;orthogonalLoop=1;jettySize=auto;html=1;fontStyle=1" parent="UGFMIuL5P9NvXVXn8VAR-1" source="UGFMIuL5P9NvXVXn8VAR-88" edge="1">
          <mxGeometry relative="1" as="geometry">
            <mxPoint x="540" y="650.0000000000002" as="targetPoint" />
          </mxGeometry>
        </mxCell>
        <mxCell id="UGFMIuL5P9NvXVXn8VAR-88" value="Thêm tài liệu đính kèm" style="rounded=1;whiteSpace=wrap;html=1;fontStyle=1" parent="UGFMIuL5P9NvXVXn8VAR-1" vertex="1">
          <mxGeometry x="330" y="620" width="120" height="60" as="geometry" />
        </mxCell>
        <mxCell id="UGFMIuL5P9NvXVXn8VAR-92" value="Thêm giải thích" style="rounded=1;whiteSpace=wrap;html=1;fontStyle=1" parent="UGFMIuL5P9NvXVXn8VAR-1" vertex="1">
          <mxGeometry x="20" y="850" width="120" height="60" as="geometry" />
        </mxCell>
        <mxCell id="UGFMIuL5P9NvXVXn8VAR-94" value="Thêm hướng dẫn" style="rounded=1;whiteSpace=wrap;html=1;fontStyle=1" parent="UGFMIuL5P9NvXVXn8VAR-1" vertex="1">
          <mxGeometry x="330" y="730" width="120" height="60" as="geometry" />
        </mxCell>
        <mxCell id="UGFMIuL5P9NvXVXn8VAR-103" style="edgeStyle=orthogonalEdgeStyle;rounded=0;orthogonalLoop=1;jettySize=auto;html=1;fontStyle=1" parent="UGFMIuL5P9NvXVXn8VAR-1" source="UGFMIuL5P9NvXVXn8VAR-97" target="UGFMIuL5P9NvXVXn8VAR-102" edge="1">
          <mxGeometry relative="1" as="geometry" />
        </mxCell>
        <mxCell id="UGFMIuL5P9NvXVXn8VAR-106" value="hợp lệ" style="edgeLabel;html=1;align=center;verticalAlign=middle;resizable=0;points=[];fontStyle=1" parent="UGFMIuL5P9NvXVXn8VAR-103" vertex="1" connectable="0">
          <mxGeometry x="-0.1902" relative="1" as="geometry">
            <mxPoint as="offset" />
          </mxGeometry>
        </mxCell>
        <mxCell id="UGFMIuL5P9NvXVXn8VAR-97" value="Kiểm tra" style="rhombus;whiteSpace=wrap;html=1;fontStyle=1" parent="UGFMIuL5P9NvXVXn8VAR-1" vertex="1">
          <mxGeometry x="541" y="609" width="80" height="80" as="geometry" />
        </mxCell>
        <mxCell id="UGFMIuL5P9NvXVXn8VAR-102" value="Upload file" style="rounded=1;whiteSpace=wrap;html=1;fontStyle=1" parent="UGFMIuL5P9NvXVXn8VAR-1" vertex="1">
          <mxGeometry x="521" y="730" width="120" height="60" as="geometry" />
        </mxCell>
        <mxCell id="UGFMIuL5P9NvXVXn8VAR-99" style="edgeStyle=orthogonalEdgeStyle;rounded=0;orthogonalLoop=1;jettySize=auto;html=1;entryX=0.75;entryY=0;entryDx=0;entryDy=0;fontStyle=1" parent="UGFMIuL5P9NvXVXn8VAR-1" source="UGFMIuL5P9NvXVXn8VAR-97" target="UGFMIuL5P9NvXVXn8VAR-88" edge="1">
          <mxGeometry relative="1" as="geometry">
            <Array as="points">
              <mxPoint x="670" y="650" />
              <mxPoint x="670" y="600" />
              <mxPoint x="420" y="600" />
            </Array>
          </mxGeometry>
        </mxCell>
        <mxCell id="UGFMIuL5P9NvXVXn8VAR-101" value="không hợp lệ" style="edgeLabel;html=1;align=center;verticalAlign=middle;resizable=0;points=[];fontStyle=1" parent="UGFMIuL5P9NvXVXn8VAR-99" vertex="1" connectable="0">
          <mxGeometry x="-0.5921" relative="1" as="geometry">
            <mxPoint y="14" as="offset" />
          </mxGeometry>
        </mxCell>
        <mxCell id="UGFMIuL5P9NvXVXn8VAR-105" style="edgeStyle=orthogonalEdgeStyle;rounded=0;orthogonalLoop=1;jettySize=auto;html=1;fontStyle=1" parent="UGFMIuL5P9NvXVXn8VAR-1" source="UGFMIuL5P9NvXVXn8VAR-102" target="UGFMIuL5P9NvXVXn8VAR-94" edge="1">
          <mxGeometry relative="1" as="geometry" />
        </mxCell>
        <mxCell id="UGFMIuL5P9NvXVXn8VAR-85" style="edgeStyle=orthogonalEdgeStyle;rounded=0;orthogonalLoop=1;jettySize=auto;html=1;fontStyle=1" parent="UGFMIuL5P9NvXVXn8VAR-1" source="UGFMIuL5P9NvXVXn8VAR-82" target="UGFMIuL5P9NvXVXn8VAR-84" edge="1">
          <mxGeometry relative="1" as="geometry" />
        </mxCell>
        <mxCell id="UGFMIuL5P9NvXVXn8VAR-44" value="Truy cập quản lý bài tập/trắc nghiệm" style="rounded=1;whiteSpace=wrap;html=1;fontStyle=1" parent="UGFMIuL5P9NvXVXn8VAR-1" vertex="1">
          <mxGeometry x="180" y="120" width="120" height="60" as="geometry" />
        </mxCell>
        <mxCell id="UGFMIuL5P9NvXVXn8VAR-74" style="edgeStyle=orthogonalEdgeStyle;rounded=0;orthogonalLoop=1;jettySize=auto;html=1;fontStyle=1" parent="UGFMIuL5P9NvXVXn8VAR-1" source="UGFMIuL5P9NvXVXn8VAR-44" target="UGFMIuL5P9NvXVXn8VAR-73" edge="1">
          <mxGeometry relative="1" as="geometry" />
        </mxCell>
        <mxCell id="CGTucAXShJNqEY0WRfko-60" style="edgeStyle=orthogonalEdgeStyle;rounded=0;orthogonalLoop=1;jettySize=auto;html=1;" edge="1" parent="UGFMIuL5P9NvXVXn8VAR-1" source="CGTucAXShJNqEY0WRfko-59" target="UGFMIuL5P9NvXVXn8VAR-76">
          <mxGeometry relative="1" as="geometry" />
        </mxCell>
        <mxCell id="CGTucAXShJNqEY0WRfko-61" value="Thêm thủ công" style="edgeLabel;html=1;align=center;verticalAlign=middle;resizable=0;points=[];" vertex="1" connectable="0" parent="CGTucAXShJNqEY0WRfko-60">
          <mxGeometry x="-0.16" y="-4" relative="1" as="geometry">
            <mxPoint as="offset" />
          </mxGeometry>
        </mxCell>
        <mxCell id="CGTucAXShJNqEY0WRfko-63" style="edgeStyle=orthogonalEdgeStyle;rounded=0;orthogonalLoop=1;jettySize=auto;html=1;entryX=0.5;entryY=0;entryDx=0;entryDy=0;" edge="1" parent="UGFMIuL5P9NvXVXn8VAR-1" source="CGTucAXShJNqEY0WRfko-59" target="CGTucAXShJNqEY0WRfko-62">
          <mxGeometry relative="1" as="geometry" />
        </mxCell>
        <mxCell id="CGTucAXShJNqEY0WRfko-64" value="Thêm tự động" style="edgeLabel;html=1;align=center;verticalAlign=middle;resizable=0;points=[];" vertex="1" connectable="0" parent="CGTucAXShJNqEY0WRfko-63">
          <mxGeometry x="-0.19" y="1" relative="1" as="geometry">
            <mxPoint x="29" y="61" as="offset" />
          </mxGeometry>
        </mxCell>
        <mxCell id="CGTucAXShJNqEY0WRfko-59" value="Thêm tự động từ file" style="rhombus;whiteSpace=wrap;html=1;fontStyle=1" vertex="1" parent="UGFMIuL5P9NvXVXn8VAR-1">
          <mxGeometry x="40" y="350" width="80" height="80" as="geometry" />
        </mxCell>
        <mxCell id="CGTucAXShJNqEY0WRfko-62" value="Tải file docx chứa danh sách câu trắc nghiệm&amp;nbsp;" style="rounded=1;whiteSpace=wrap;html=1;fontStyle=1" vertex="1" parent="UGFMIuL5P9NvXVXn8VAR-1">
          <mxGeometry x="170" y="480" width="120" height="60" as="geometry" />
        </mxCell>
        <mxCell id="CGTucAXShJNqEY0WRfko-74" style="edgeStyle=orthogonalEdgeStyle;rounded=0;orthogonalLoop=1;jettySize=auto;html=1;entryX=0.5;entryY=0;entryDx=0;entryDy=0;exitX=0.5;exitY=1;exitDx=0;exitDy=0;" edge="1" parent="UGFMIuL5P9NvXVXn8VAR-1">
          <mxGeometry relative="1" as="geometry">
            <mxPoint x="225" y="540" as="sourcePoint" />
            <mxPoint x="731" y="900" as="targetPoint" />
            <Array as="points">
              <mxPoint x="230" y="540" />
              <mxPoint x="230" y="850" />
              <mxPoint x="731" y="850" />
            </Array>
          </mxGeometry>
        </mxCell>
        <mxCell id="UGFMIuL5P9NvXVXn8VAR-16" value="Hệ Thống" style="swimlane;startSize=20;whiteSpace=wrap;html=1;fontStyle=1" parent="1" vertex="1">
          <mxGeometry x="451" y="150" width="439" height="1340" as="geometry" />
        </mxCell>
        <mxCell id="UGFMIuL5P9NvXVXn8VAR-114" value="" style="ellipse;html=1;shape=endState;fillColor=#000000;strokeColor=#ff0000;fontStyle=1" parent="UGFMIuL5P9NvXVXn8VAR-16" vertex="1">
          <mxGeometry x="175" y="1290" width="30" height="30" as="geometry" />
        </mxCell>
        <mxCell id="UGFMIuL5P9NvXVXn8VAR-115" value="Kiểm tra&amp;nbsp;" style="rhombus;whiteSpace=wrap;html=1;fontStyle=1" parent="UGFMIuL5P9NvXVXn8VAR-16" vertex="1">
          <mxGeometry x="150" y="470" width="80" height="80" as="geometry" />
        </mxCell>
        <mxCell id="UGFMIuL5P9NvXVXn8VAR-90" value="Thiết lập thời gian" style="rounded=1;whiteSpace=wrap;html=1;fontStyle=1" parent="UGFMIuL5P9NvXVXn8VAR-16" vertex="1">
          <mxGeometry x="-271" y="1040" width="120" height="60" as="geometry" />
        </mxCell>
        <mxCell id="UGFMIuL5P9NvXVXn8VAR-113" style="edgeStyle=orthogonalEdgeStyle;rounded=0;orthogonalLoop=1;jettySize=auto;html=1;entryX=0.5;entryY=0;entryDx=0;entryDy=0;fontStyle=1" parent="UGFMIuL5P9NvXVXn8VAR-16" source="UGFMIuL5P9NvXVXn8VAR-110" target="UGFMIuL5P9NvXVXn8VAR-112" edge="1">
          <mxGeometry relative="1" as="geometry" />
        </mxCell>
        <mxCell id="UGFMIuL5P9NvXVXn8VAR-110" value="Lưu bài tập/quiz vào CSDL" style="rounded=1;whiteSpace=wrap;html=1;fontStyle=1" parent="UGFMIuL5P9NvXVXn8VAR-16" vertex="1">
          <mxGeometry x="130" y="1040" width="120" height="60" as="geometry" />
        </mxCell>
        <mxCell id="UGFMIuL5P9NvXVXn8VAR-121" style="edgeStyle=orthogonalEdgeStyle;rounded=0;orthogonalLoop=1;jettySize=auto;html=1;entryX=0.5;entryY=0;entryDx=0;entryDy=0;fontStyle=1" parent="UGFMIuL5P9NvXVXn8VAR-16" source="UGFMIuL5P9NvXVXn8VAR-112" target="UGFMIuL5P9NvXVXn8VAR-114" edge="1">
          <mxGeometry relative="1" as="geometry" />
        </mxCell>
        <mxCell id="UGFMIuL5P9NvXVXn8VAR-112" value="Hiển thị trong khóa học" style="rounded=1;whiteSpace=wrap;html=1;fontStyle=1" parent="UGFMIuL5P9NvXVXn8VAR-16" vertex="1">
          <mxGeometry x="130" y="1170" width="120" height="60" as="geometry" />
        </mxCell>
        <mxCell id="UGFMIuL5P9NvXVXn8VAR-111" style="edgeStyle=orthogonalEdgeStyle;rounded=0;orthogonalLoop=1;jettySize=auto;html=1;entryX=0;entryY=0.5;entryDx=0;entryDy=0;fontStyle=1" parent="UGFMIuL5P9NvXVXn8VAR-16" source="UGFMIuL5P9NvXVXn8VAR-90" target="UGFMIuL5P9NvXVXn8VAR-110" edge="1">
          <mxGeometry relative="1" as="geometry" />
        </mxCell>
        <mxCell id="UGFMIuL5P9NvXVXn8VAR-135" style="edgeStyle=orthogonalEdgeStyle;rounded=0;orthogonalLoop=1;jettySize=auto;html=1;entryX=0.75;entryY=0;entryDx=0;entryDy=0;fontStyle=1" parent="UGFMIuL5P9NvXVXn8VAR-16" source="UGFMIuL5P9NvXVXn8VAR-131" target="UGFMIuL5P9NvXVXn8VAR-90" edge="1">
          <mxGeometry relative="1" as="geometry">
            <Array as="points">
              <mxPoint x="349" y="1010" />
              <mxPoint x="-181" y="1010" />
            </Array>
          </mxGeometry>
        </mxCell>
        <mxCell id="UGFMIuL5P9NvXVXn8VAR-136" value="hợp lệ" style="edgeLabel;html=1;align=center;verticalAlign=middle;resizable=0;points=[];fontStyle=1" parent="UGFMIuL5P9NvXVXn8VAR-135" vertex="1" connectable="0">
          <mxGeometry x="-0.4252" relative="1" as="geometry">
            <mxPoint as="offset" />
          </mxGeometry>
        </mxCell>
        <mxCell id="UGFMIuL5P9NvXVXn8VAR-131" value="Kiểm tra&amp;nbsp;" style="rhombus;whiteSpace=wrap;html=1;fontStyle=1" parent="UGFMIuL5P9NvXVXn8VAR-16" vertex="1">
          <mxGeometry x="309" y="900" width="80" height="80" as="geometry" />
        </mxCell>
        <mxCell id="CGTucAXShJNqEY0WRfko-75" style="edgeStyle=orthogonalEdgeStyle;rounded=0;orthogonalLoop=1;jettySize=auto;html=1;" edge="1" parent="UGFMIuL5P9NvXVXn8VAR-16" source="CGTucAXShJNqEY0WRfko-65" target="UGFMIuL5P9NvXVXn8VAR-90">
          <mxGeometry relative="1" as="geometry">
            <Array as="points">
              <mxPoint x="245" y="990" />
              <mxPoint x="-211" y="990" />
            </Array>
          </mxGeometry>
        </mxCell>
        <mxCell id="CGTucAXShJNqEY0WRfko-76" value="hợp lệ" style="edgeLabel;html=1;align=center;verticalAlign=middle;resizable=0;points=[];" vertex="1" connectable="0" parent="CGTucAXShJNqEY0WRfko-75">
          <mxGeometry x="0.2067" y="-1" relative="1" as="geometry">
            <mxPoint x="155" as="offset" />
          </mxGeometry>
        </mxCell>
        <mxCell id="CGTucAXShJNqEY0WRfko-65" value="Kiểm tra định dạng" style="rhombus;whiteSpace=wrap;html=1;fontStyle=1" vertex="1" parent="UGFMIuL5P9NvXVXn8VAR-16">
          <mxGeometry x="205" y="900" width="80" height="80" as="geometry" />
        </mxCell>
        <mxCell id="CGTucAXShJNqEY0WRfko-84" style="edgeStyle=orthogonalEdgeStyle;rounded=0;orthogonalLoop=1;jettySize=auto;html=1;entryX=0.25;entryY=0;entryDx=0;entryDy=0;" edge="1" parent="UGFMIuL5P9NvXVXn8VAR-16" source="CGTucAXShJNqEY0WRfko-80" target="UGFMIuL5P9NvXVXn8VAR-90">
          <mxGeometry relative="1" as="geometry" />
        </mxCell>
        <mxCell id="CGTucAXShJNqEY0WRfko-85" value="hợp lệ" style="edgeLabel;html=1;align=center;verticalAlign=middle;resizable=0;points=[];" vertex="1" connectable="0" parent="CGTucAXShJNqEY0WRfko-84">
          <mxGeometry x="0.0704" y="-3" relative="1" as="geometry">
            <mxPoint x="181" y="3" as="offset" />
          </mxGeometry>
        </mxCell>
        <mxCell id="CGTucAXShJNqEY0WRfko-80" value="Kiểm tra&amp;nbsp;" style="rhombus;whiteSpace=wrap;html=1;fontStyle=1" vertex="1" parent="UGFMIuL5P9NvXVXn8VAR-16">
          <mxGeometry x="109" y="900" width="80" height="80" as="geometry" />
        </mxCell>
        <mxCell id="UGFMIuL5P9NvXVXn8VAR-42" value="&lt;span style=&quot;font-size: 24px;&quot;&gt;Tạo bài tập/trắc nghiệm&lt;/span&gt;" style="text;html=1;align=center;verticalAlign=middle;whiteSpace=wrap;rounded=0;fontStyle=1" parent="1" vertex="1">
          <mxGeometry x="189" y="100" width="541" height="30" as="geometry" />
        </mxCell>
        <mxCell id="UGFMIuL5P9NvXVXn8VAR-117" style="edgeStyle=orthogonalEdgeStyle;rounded=0;orthogonalLoop=1;jettySize=auto;html=1;entryX=0;entryY=0.5;entryDx=0;entryDy=0;fontStyle=1" parent="1" source="UGFMIuL5P9NvXVXn8VAR-86" target="UGFMIuL5P9NvXVXn8VAR-115" edge="1">
          <mxGeometry relative="1" as="geometry" />
        </mxCell>
        <mxCell id="UGFMIuL5P9NvXVXn8VAR-118" style="edgeStyle=orthogonalEdgeStyle;rounded=0;orthogonalLoop=1;jettySize=auto;html=1;entryX=0.75;entryY=0;entryDx=0;entryDy=0;fontStyle=1" parent="1" source="UGFMIuL5P9NvXVXn8VAR-115" target="UGFMIuL5P9NvXVXn8VAR-86" edge="1">
          <mxGeometry relative="1" as="geometry">
            <Array as="points">
              <mxPoint x="641" y="590" />
              <mxPoint x="380" y="590" />
            </Array>
          </mxGeometry>
        </mxCell>
        <mxCell id="UGFMIuL5P9NvXVXn8VAR-119" value="không hợp lệ" style="edgeLabel;html=1;align=center;verticalAlign=middle;resizable=0;points=[];fontStyle=1" parent="UGFMIuL5P9NvXVXn8VAR-118" vertex="1" connectable="0">
          <mxGeometry x="-0.1473" relative="1" as="geometry">
            <mxPoint as="offset" />
          </mxGeometry>
        </mxCell>
        <mxCell id="UGFMIuL5P9NvXVXn8VAR-120" style="edgeStyle=orthogonalEdgeStyle;rounded=0;orthogonalLoop=1;jettySize=auto;html=1;fontStyle=1" parent="1" source="UGFMIuL5P9NvXVXn8VAR-115" target="UGFMIuL5P9NvXVXn8VAR-88" edge="1">
          <mxGeometry relative="1" as="geometry">
            <Array as="points">
              <mxPoint x="641" y="720" />
              <mxPoint x="360" y="720" />
            </Array>
          </mxGeometry>
        </mxCell>
        <mxCell id="UGFMIuL5P9NvXVXn8VAR-133" style="edgeStyle=orthogonalEdgeStyle;rounded=0;orthogonalLoop=1;jettySize=auto;html=1;entryX=0.75;entryY=1;entryDx=0;entryDy=0;fontStyle=1" parent="1" source="UGFMIuL5P9NvXVXn8VAR-131" target="UGFMIuL5P9NvXVXn8VAR-94" edge="1">
          <mxGeometry relative="1" as="geometry">
            <Array as="points">
              <mxPoint x="850" y="1090" />
              <mxPoint x="850" y="960" />
              <mxPoint x="380" y="960" />
            </Array>
          </mxGeometry>
        </mxCell>
        <mxCell id="UGFMIuL5P9NvXVXn8VAR-134" value="không hợp lệ" style="edgeLabel;html=1;align=center;verticalAlign=middle;resizable=0;points=[];fontStyle=1" parent="UGFMIuL5P9NvXVXn8VAR-133" vertex="1" connectable="0">
          <mxGeometry x="-0.2311" relative="1" as="geometry">
            <mxPoint x="-247" as="offset" />
          </mxGeometry>
        </mxCell>
        <mxCell id="CGTucAXShJNqEY0WRfko-77" style="edgeStyle=orthogonalEdgeStyle;rounded=0;orthogonalLoop=1;jettySize=auto;html=1;entryX=1;entryY=0.5;entryDx=0;entryDy=0;" edge="1" parent="1" source="CGTucAXShJNqEY0WRfko-65" target="CGTucAXShJNqEY0WRfko-62">
          <mxGeometry relative="1" as="geometry">
            <Array as="points">
              <mxPoint x="750" y="1090" />
              <mxPoint x="750" y="990" />
              <mxPoint x="270" y="990" />
              <mxPoint x="270" y="660" />
            </Array>
          </mxGeometry>
        </mxCell>
        <mxCell id="CGTucAXShJNqEY0WRfko-78" value="không hợp lệ" style="edgeLabel;html=1;align=center;verticalAlign=middle;resizable=0;points=[];" vertex="1" connectable="0" parent="CGTucAXShJNqEY0WRfko-77">
          <mxGeometry x="-0.214" y="-2" relative="1" as="geometry">
            <mxPoint x="87" as="offset" />
          </mxGeometry>
        </mxCell>
        <mxCell id="CGTucAXShJNqEY0WRfko-79" style="edgeStyle=orthogonalEdgeStyle;rounded=0;orthogonalLoop=1;jettySize=auto;html=1;entryX=0.5;entryY=0;entryDx=0;entryDy=0;" edge="1" parent="1" source="UGFMIuL5P9NvXVXn8VAR-94" target="UGFMIuL5P9NvXVXn8VAR-131">
          <mxGeometry relative="1" as="geometry">
            <Array as="points">
              <mxPoint x="350" y="970" />
              <mxPoint x="800" y="970" />
            </Array>
          </mxGeometry>
        </mxCell>
        <mxCell id="CGTucAXShJNqEY0WRfko-81" style="edgeStyle=orthogonalEdgeStyle;rounded=0;orthogonalLoop=1;jettySize=auto;html=1;entryX=0.5;entryY=0;entryDx=0;entryDy=0;" edge="1" parent="1" source="UGFMIuL5P9NvXVXn8VAR-92" target="CGTucAXShJNqEY0WRfko-80">
          <mxGeometry relative="1" as="geometry">
            <Array as="points">
              <mxPoint x="600" y="1030" />
            </Array>
          </mxGeometry>
        </mxCell>
        <mxCell id="CGTucAXShJNqEY0WRfko-82" style="edgeStyle=orthogonalEdgeStyle;rounded=0;orthogonalLoop=1;jettySize=auto;html=1;entryX=1;entryY=0.5;entryDx=0;entryDy=0;" edge="1" parent="1" source="CGTucAXShJNqEY0WRfko-80" target="UGFMIuL5P9NvXVXn8VAR-76">
          <mxGeometry relative="1" as="geometry">
            <Array as="points">
              <mxPoint x="650" y="1090" />
              <mxPoint x="650" y="1020" />
              <mxPoint x="120" y="1020" />
              <mxPoint x="120" y="660" />
            </Array>
          </mxGeometry>
        </mxCell>
        <mxCell id="CGTucAXShJNqEY0WRfko-83" value="không hợp lệ" style="edgeLabel;html=1;align=center;verticalAlign=middle;resizable=0;points=[];" vertex="1" connectable="0" parent="CGTucAXShJNqEY0WRfko-82">
          <mxGeometry x="-0.5037" y="-1" relative="1" as="geometry">
            <mxPoint x="116" y="1" as="offset" />
          </mxGeometry>
        </mxCell>
      </root>
    </mxGraphModel>
  </diagram>
</mxfile>
